<?xml version="1.0" encoding="utf-8"?>
<!-- Generator: Adobe Illustrator 22.1.0, SVG Export Plug-In . SVG Version: 6.00 Build 0)  -->
<svg version="1.1" id="Capa_1" xmlns="http://www.w3.org/2000/svg" xmlns:xlink="http://www.w3.org/1999/xlink" x="0px" y="0px"
	 viewBox="0 0 164.6 172.2" style="enable-background:new 0 0 164.6 172.2;" xml:space="preserve">
<style type="text/css">
	.st0{fill:#666666;}
</style>
<title>icon-playingicon</title>
<g id="Capa_2_1_">
	<g id="Capa_1-2">
		<path class="st0" d="M0,53.2c1.9-3.3,4.8-4.2,8.5-4c5.4,0.2,10.8,0,16.2,0.1c1.7,0.1,3.4-0.6,4.5-1.9
			C43.3,32.8,57.5,18.2,71.6,3.7c0.7-0.8,1.5-1.6,2.4-2.3c2.4-2.1,6.1-1.8,8.2,0.6c0.6,0.7,1,1.5,1.2,2.3c0.3,1.3,0.5,2.7,0.4,4.1
			c0,51.8,0,103.6,0,155.5c0.1,1.3-0.1,2.6-0.3,3.8c-0.7,3.1-3.7,5.2-6.9,4.5c-1.1-0.2-2-0.7-2.8-1.5c-0.7-0.6-1.3-1.3-1.9-1.9
			c-14.2-14.6-28.4-29.2-42.6-43.8c-1.1-1.3-2.8-2-4.5-1.9c-5.4,0.1-10.8-0.1-16.2,0.1c-3.7,0.2-6.6-0.8-8.5-4L0,53.2z"/>
		<path class="st0" d="M164.6,82.5c-0.4,25.7-7.7,45-22.7,61.2c-4.2,4.6-9.6,5.1-13.5,1.4s-3.9-9.4,0.2-13.9
			c23.9-26.2,23.9-64,0-90.2c-3.9-4.2-4.2-9.5-0.8-13.3c3.6-4,9.3-4.1,13.3,0c10,10.1,17.1,22.8,20.5,36.6
			C163.3,71.5,164.1,78.9,164.6,82.5z"/>
		<path class="st0" d="M125.7,86.1c-0.2,15.4-5.3,29-15.8,40.4c-3.9,4.3-9.2,4.8-13.1,1.4c-4-3.6-4.2-9.3-0.4-13.7
			c15-17.2,15-39,0-56.1c-3.8-4.3-3.7-10.1,0.3-13.7s9.2-2.9,13.1,1.3C120.3,57.1,125.4,70.7,125.7,86.1z"/>
	</g>
</g>
</svg>
