<svg xmlns="http://www.w3.org/2000/svg" viewBox="0 0 178.8 172.2"><path d="M83.4 86.1v80c0 2.5-1.5 4.7-3.8 5.5-2.5 1-4.6.3-6.5-1.5-.6-.6-1.2-1.2-1.7-1.8l-41.7-43.2c-1.5-1.7-3.7-2.6-5.9-2.5-5.7.2-11.3.1-17 .1-4.5 0-6.8-2.3-6.8-6.8v-60c0-4.3 2.3-6.6 6.6-6.6 5.7 0 11.3-.2 17 0 2.5.2 4.8-.9 6.4-2.8 13.8-14.4 27.7-28.6 41.5-43 .7-.8 1.5-1.6 2.4-2.3 2.5-2 6.2-1.6 8.2.9.7.9 1.1 2 1.3 3.1.1 1.1.1 2.2.1 3.3l-.1 77.6zm23.9-36.9c5.2 0 10-.1 14.8.1.9 0 1.9 1 2.6 1.6 6.4 5.8 12.8 11.7 18.3 16.7 5.3-4.8 11.6-10.5 17.8-16.3 1.3-1.4 3.1-2.2 5-2.1 4.2.2 8.4 0 13 0 0 5.4 0 10.6-.1 15.9 0 .7-.9 1.3-1.4 1.9-5.5 5.7-11 11.3-16.4 17-.6.6-1.2 1.3-2 2.1 5.9 6.1 11.7 12.2 17.6 18.1 1.6 1.5 2.5 3.6 2.3 5.8-.2 4.2 0 8.4 0 12.9-5.2 0-10.3.1-15.4-.1-.7 0-1.4-1-2.1-1.6-6.4-5.8-12.8-11.7-18.3-16.7-5.2 4.7-11.5 10.3-17.6 16.1-1.6 1.6-3.1 2.4-5.4 2.3-4.1-.2-8.2 0-12.7 0 0-5.4-.1-10.5.1-15.7 0-.8 1-1.7 1.6-2.4 5.9-6.2 11.9-12.3 18.1-18.7-.7-.8-1.4-1.6-2-2.3-5.4-5.6-10.9-11.1-16.2-16.8-.9-1.1-1.5-2.4-1.6-3.8-.1-4.4 0-9 0-14z" fill="#666"/></svg>