<svg version="1.1" id="Capa_1" xmlns="http://www.w3.org/2000/svg" x="0" y="0" viewBox="0 0 164.6 172.2" xml:space="preserve"><style>.st0{fill:#666}</style><g id="Capa_2_1_"><g id="Capa_1-2"><path class="st0" d="M0 53.2c1.9-3.3 4.8-4.2 8.5-4 5.4.2 10.8 0 16.2.1 1.7.1 3.4-.6 4.5-1.9C43.3 32.8 57.5 18.2 71.6 3.7c.7-.8 1.5-1.6 2.4-2.3 2.4-2.1 6.1-1.8 8.2.6.6.7 1 1.5 1.2 2.3.3 1.3.5 2.7.4 4.1v155.5c.1 1.3-.1 2.6-.3 3.8-.7 3.1-3.7 5.2-6.9 4.5-1.1-.2-2-.7-2.8-1.5-.7-.6-1.3-1.3-1.9-1.9L29.3 125c-1.1-1.3-2.8-2-4.5-1.9-5.4.1-10.8-.1-16.2.1-3.7.2-6.6-.8-8.5-4l-.1-66zm164.6 29.3c-.4 25.7-7.7 45-22.7 61.2-4.2 4.6-9.6 5.1-13.5 1.4s-3.9-9.4.2-13.9c23.9-26.2 23.9-64 0-90.2-3.9-4.2-4.2-9.5-.8-13.3 3.6-4 9.3-4.1 13.3 0 10 10.1 17.1 22.8 20.5 36.6 1.7 7.2 2.5 14.6 3 18.2z"/><path class="st0" d="M125.7 86.1c-.2 15.4-5.3 29-15.8 40.4-3.9 4.3-9.2 4.8-13.1 1.4-4-3.6-4.2-9.3-.4-13.7 15-17.2 15-39 0-56.1-3.8-4.3-3.7-10.1.3-13.7s9.2-2.9 13.1 1.3c10.5 11.4 15.6 25 15.9 40.4z"/></g></g></svg>